# xmcd
#
# Track frame offsets:
#	150
#	21822
#	37124
#	64607
#	93909
#	109167
#	124585
#	140176
#	165116
#	187462
#	208838
#	226760
#	241992
#	269429
#	329627
#	353680
#
# Disc length: 4873 seconds
#
# Revision: 0
# Processed by: cddbd v1.5.2PL0 Copyright (c) Steve Scherf et al.
# Submitted via: audiograbber 1.83.01
#
DISCID=ec130710
DTITLE=Mark Knopfler - Privateering Tour 2013 - Die Orginale
DYEAR=2013
DGENRE=BluesRock
TTITLE0=What It Is
TTITLE1=Corned Beef City
TTITLE2=Privateering
TTITLE3=Father And Son
TTITLE4=Hill Farmer's Blues
TTITLE5=I Dug Up A Diamond
TTITLE6=I Used To Could
TTITLE7=Romeo and Juliet
TTITLE8=Song For Sonny Liston
TTITLE9=Dream Of The Drowned Submariner
TTITLE10=Postcards From Paraguay
TTITLE11=Marbletown
TTITLE12=Speedway At Nazareth
TTITLE13=Telegraph Road
TTITLE14=Our Shangri-La
TTITLE15=Going Home: Theme of the Local Hero
EXTD=
EXTT0=
EXTT1=
EXTT2=
EXTT3=
EXTT4=
EXTT5=
EXTT6=
EXTT7=
EXTT8=
EXTT9=
EXTT10=
EXTT11=
EXTT12=
EXTT13=
EXTT14=
EXTT15=
PLAYORDER=
